<svg preserveAspectRatio="none" width="100%" height="100%" overflow="visible" style="display: block;" viewBox="0 0 27 17" fill="none" xmlns="http://www.w3.org/2000/svg">
<path id="Vector" d="M1.02293 2.7256C1.28614 2.80146 1.53918 2.90789 1.77667 3.04265C2.61092 3.53135 3.56435 3.78938 4.53589 3.78938C5.50743 3.78938 6.46087 3.53135 7.29511 3.04265C7.82066 2.7509 8.41417 2.59758 9.01795 2.59758C9.62173 2.59758 10.2152 2.7509 10.7408 3.04265C11.5851 3.51651 12.5409 3.76577 13.5135 3.76577C14.4861 3.76577 15.4418 3.51651 16.2861 3.04265C16.8117 2.7509 17.4052 2.59758 18.009 2.59758C18.6128 2.59758 19.2063 2.7509 19.7318 3.04265C20.5848 3.52113 21.549 3.77591 22.5314 3.78245C23.4805 3.78053 24.4112 3.52476 25.2233 3.04265C25.4608 2.90789 25.7139 2.80146 25.9771 2.7256C26.3198 2.62749 26.6087 2.39979 26.7804 2.09259C26.952 1.78538 26.9923 1.42383 26.8923 1.08748C26.7924 0.751127 26.5604 0.467522 26.2474 0.299054C25.9344 0.130586 25.566 0.0910554 25.2233 0.189158C24.7514 0.332095 24.2993 0.53177 23.8774 0.783636C23.4486 1.02974 22.9608 1.15945 22.4641 1.15945C21.9674 1.15945 21.4796 1.02974 21.0508 0.783636C20.1176 0.269838 19.0655 0 17.9955 0C16.9255 0 15.8734 0.269838 14.9402 0.783636C14.5069 1.03074 14.0146 1.16091 13.5135 1.16091C13.0123 1.16091 12.5201 1.03074 12.0867 0.783636C11.1535 0.269838 10.1014 0 9.03141 0C7.96138 0 6.9093 0.269838 5.97607 0.783636C5.54729 1.02974 5.05952 1.15945 4.56281 1.15945C4.0661 1.15945 3.57833 1.02974 3.14955 0.783636C2.72758 0.53177 2.2755 0.332095 1.80359 0.189158C1.4609 0.0910554 1.09253 0.130586 0.779537 0.299054C0.466541 0.467522 0.234548 0.751127 0.134596 1.08748C0.0346443 1.42383 0.0749201 1.78538 0.246564 2.09259C0.418207 2.39979 0.707158 2.62749 1.04985 2.7256H1.02293ZM25.2502 13.3998C24.7783 13.5427 24.3263 13.7424 23.9043 13.9943C23.4755 14.2404 22.9877 14.3701 22.491 14.3701C21.9943 14.3701 21.5065 14.2404 21.0778 13.9943C20.1445 13.4805 19.0925 13.2106 18.0224 13.2106C16.9524 13.2106 15.9003 13.4805 14.9671 13.9943C14.5338 14.2414 14.0415 14.3715 13.5404 14.3715C13.0392 14.3715 12.547 14.2414 12.1137 13.9943C11.1804 13.4805 10.1283 13.2106 9.05832 13.2106C7.9883 13.2106 6.93622 13.4805 6.00299 13.9943C5.57421 14.2404 5.08644 14.3701 4.58973 14.3701C4.09302 14.3701 3.60525 14.2404 3.17647 13.9943C2.7545 13.7424 2.30242 13.5427 1.83051 13.3998C1.66082 13.3512 1.48305 13.3359 1.30735 13.3548C1.13164 13.3736 0.961437 13.4263 0.806457 13.5097C0.651476 13.5931 0.514753 13.7056 0.404094 13.8409C0.293435 13.9762 0.211007 14.1316 0.161515 14.2981C0.112024 14.4646 0.0964394 14.6391 0.115651 14.8116C0.134862 14.984 0.188494 15.1511 0.273483 15.3032C0.358472 15.4553 0.473155 15.5895 0.610983 15.6981C0.748811 15.8067 0.907086 15.8876 1.07677 15.9362C1.33998 16.0121 1.59302 16.1185 1.83051 16.2533C2.66476 16.742 3.61819 17 4.58973 17C5.56127 17 6.5147 16.742 7.34895 16.2533C7.8745 15.9615 8.468 15.8082 9.07178 15.8082C9.67556 15.8082 10.2691 15.9615 10.7946 16.2533C11.6389 16.7271 12.5947 16.9764 13.5673 16.9764C14.5399 16.9764 15.4957 16.7271 16.34 16.2533C16.8655 15.9615 17.459 15.8082 18.0628 15.8082C18.6666 15.8082 19.2601 15.9615 19.7856 16.2533C20.6386 16.7317 21.6028 16.9865 22.5852 16.9931C23.5344 16.9911 24.465 16.7354 25.2772 16.2533C25.5147 16.1185 25.7677 16.0121 26.0309 15.9362C26.3736 15.8381 26.6626 15.6104 26.8342 15.3032C27.0058 14.996 27.0461 14.6344 26.9462 14.2981C26.8462 13.9617 26.6142 13.6781 26.3012 13.5097C25.9882 13.3412 25.6199 13.3017 25.2772 13.3998H25.2502ZM25.2502 6.79447C24.7783 6.9374 24.3263 7.13708 23.9043 7.38894C23.4755 7.63505 22.9877 7.76476 22.491 7.76476C21.9943 7.76476 21.5065 7.63505 21.0778 7.38894C20.1445 6.87515 19.0925 6.60531 18.0224 6.60531C16.9524 6.60531 15.9003 6.87515 14.9671 7.38894C14.5338 7.63605 14.0415 7.76622 13.5404 7.76622C13.0392 7.76622 12.547 7.63605 12.1137 7.38894C11.1804 6.87515 10.1283 6.60531 9.05832 6.60531C7.9883 6.60531 6.93622 6.87515 6.00299 7.38894C5.57421 7.63505 5.08644 7.76476 4.58973 7.76476C4.09302 7.76476 3.60525 7.63505 3.17647 7.38894C2.7545 7.13708 2.30242 6.9374 1.83051 6.79447C1.65427 6.72916 1.46603 6.70089 1.27796 6.71149C1.08989 6.72209 0.906182 6.77132 0.738718 6.85599C0.571254 6.94066 0.423764 7.0589 0.305788 7.20304C0.187812 7.34719 0.101978 7.51403 0.0538386 7.69279C0.00434739 7.85933 -0.0112375 8.03381 0.00797394 8.20627C0.0271853 8.37873 0.0808167 8.54578 0.165806 8.69789C0.250795 8.85001 0.365478 8.9842 0.503306 9.09281C0.641134 9.20143 0.799409 9.28233 0.969093 9.3309C1.2323 9.40676 1.48534 9.5132 1.72283 9.64796C2.55708 10.1367 3.51051 10.3947 4.48205 10.3947C5.45359 10.3947 6.40703 10.1367 7.24128 9.64796C7.76682 9.35621 8.36033 9.20289 8.96411 9.20289C9.56789 9.20289 10.1614 9.35621 10.6869 9.64796C11.5313 10.1218 12.487 10.3711 13.4596 10.3711C14.4322 10.3711 15.388 10.1218 16.2323 9.64796C16.7578 9.35621 17.3514 9.20289 17.9551 9.20289C18.5589 9.20289 19.1524 9.35621 19.678 9.64796C20.531 10.1264 21.4951 10.3812 22.4776 10.3878C23.4267 10.3858 24.3573 10.1301 25.1695 9.64796C25.407 9.5132 25.66 9.40676 25.9232 9.3309C26.2659 9.2328 26.5549 9.0051 26.7265 8.69789C26.8982 8.39069 26.9384 8.02914 26.8385 7.69279C26.7385 7.35644 26.5065 7.07283 26.1935 6.90436C25.8805 6.73589 25.5122 6.69636 25.1695 6.79447H25.2502Z" fill="var(--fill-0, #0061B6)"/>
</svg>
