<svg preserveAspectRatio="none" width="100%" height="100%" overflow="visible" style="display: block;" viewBox="0 0 23 26" fill="none" xmlns="http://www.w3.org/2000/svg">
<path id="Vector" d="M22.4009 17.8809L20.0208 16.5218L21.0799 16.2382C21.2355 16.2022 21.3821 16.1355 21.5112 16.042C21.6402 15.9485 21.749 15.8302 21.831 15.6942C21.913 15.5581 21.9666 15.407 21.9886 15.2499C22.0106 15.0928 22.0005 14.9329 21.959 14.7797C21.9174 14.6266 21.8452 14.4833 21.7468 14.3584C21.6483 14.2336 21.5255 14.1297 21.3857 14.0529C21.246 13.9762 21.0921 13.9282 20.9332 13.9117C20.7743 13.8953 20.6138 13.9108 20.4611 13.9573L17.1051 14.8555L13.8801 13L17.1051 11.1445L20.4611 12.0427H20.7705C21.0861 12.0835 21.4051 11.998 21.6573 11.8052C21.9095 11.6124 22.0742 11.328 22.1153 11.0145C22.1563 10.7011 22.0703 10.3843 21.8761 10.1339C21.6819 9.88343 21.3955 9.71984 21.0799 9.67909L20.0208 9.45455L22.4009 8.09545C22.5368 8.01785 22.6561 7.91442 22.7518 7.79106C22.8475 7.66769 22.9178 7.52682 22.9587 7.37647C22.9996 7.22612 23.0102 7.06925 22.9901 6.91481C22.9699 6.76037 22.9193 6.61139 22.8412 6.47636C22.7631 6.34134 22.6589 6.22292 22.5347 6.12788C22.4105 6.03283 22.2686 5.96301 22.1172 5.9224C21.9658 5.8818 21.8078 5.8712 21.6523 5.89123C21.4968 5.91125 21.3468 5.96149 21.2108 6.03909L18.6403 7.52818L18.9973 6.21636C19.0441 6.06472 19.0597 5.90527 19.0432 5.74752C19.0266 5.58976 18.9783 5.43693 18.901 5.29812C18.8237 5.15932 18.7191 5.03738 18.5934 4.93958C18.4676 4.84178 18.3233 4.77011 18.1691 4.72885C18.0149 4.68759 17.8539 4.67757 17.6957 4.69941C17.5375 4.72124 17.3854 4.77447 17.2483 4.85593C17.1113 4.93739 16.9922 5.04541 16.8981 5.17355C16.8039 5.3017 16.7368 5.44735 16.7005 5.60182L15.7247 9.14727L12.6901 10.9555V7.25636L15.1535 4.81C15.3751 4.58857 15.4995 4.28904 15.4995 3.97682C15.4995 3.6646 15.3751 3.36506 15.1535 3.14364C15.0428 3.03287 14.9112 2.94495 14.7662 2.88495C14.6212 2.82495 14.4656 2.79406 14.3085 2.79406C14.1514 2.79406 13.9959 2.82495 13.8509 2.88495C13.7058 2.94495 13.5742 3.03287 13.4636 3.14364L12.6901 3.91182V1.18182C12.6901 0.86838 12.5647 0.56778 12.3415 0.346146C12.1183 0.124513 11.8156 0 11.5 0C11.1844 0 10.8817 0.124513 10.6585 0.346146C10.4353 0.56778 10.3099 0.86838 10.3099 1.18182V4.10091L9.346 3.14364C9.23537 3.03287 9.10375 2.94495 8.95873 2.88495C8.81372 2.82495 8.65817 2.79406 8.50107 2.79406C8.34397 2.79406 8.18842 2.82495 8.0434 2.88495C7.89838 2.94495 7.76676 3.03287 7.65613 3.14364C7.43448 3.36506 7.31007 3.6646 7.31007 3.97682C7.31007 4.28904 7.43448 4.58857 7.65613 4.81L10.3099 7.44545V10.9909L7.25151 9.19454L6.27567 5.64909C6.23943 5.49462 6.17225 5.34897 6.07814 5.22083C5.98402 5.09268 5.86489 4.98466 5.72785 4.9032C5.59081 4.82174 5.43866 4.76851 5.28047 4.74668C5.12228 4.72485 4.96128 4.73486 4.80706 4.77612C4.65285 4.81739 4.50858 4.88905 4.38284 4.98685C4.25711 5.08466 4.15248 5.20659 4.0752 5.3454C3.99792 5.4842 3.94956 5.63703 3.93301 5.79479C3.91646 5.95254 3.93206 6.11199 3.97887 6.26364L4.35969 7.52818L1.78918 6.06273C1.65321 5.98513 1.50319 5.93488 1.34767 5.91486C1.19216 5.89484 1.03419 5.90543 0.882798 5.94604C0.731404 5.98664 0.589546 6.05646 0.465323 6.15151C0.3411 6.24656 0.236945 6.36498 0.158805 6.5C0.0806654 6.63502 0.0300707 6.78401 0.00990983 6.93845C-0.0102511 7.09289 0.000416614 7.24976 0.041304 7.40011C0.12388 7.70375 0.324534 7.96237 0.599124 8.11909L2.97923 9.45455L1.97958 9.76182C1.66396 9.80256 1.37757 9.96616 1.1834 10.2166C0.989239 10.467 0.903209 10.7838 0.94424 11.0973C0.98527 11.4107 1.15 11.6951 1.40219 11.8879C1.65438 12.0808 1.97338 12.1662 2.289 12.1255H2.59841L5.95436 11.2273L9.1199 13L5.89485 14.8555L2.53891 13.9573C2.38144 13.8992 2.21338 13.8749 2.04578 13.886C1.87818 13.897 1.71483 13.9432 1.56649 14.0214C1.41814 14.0997 1.28815 14.2082 1.18506 14.3399C1.08198 14.4716 1.00814 14.6235 0.968392 14.7855C0.928649 14.9476 0.923905 15.1162 0.954471 15.2802C0.985037 15.4443 1.05022 15.6 1.14574 15.7372C1.24125 15.8744 1.36494 15.99 1.50865 16.0764C1.65237 16.1627 1.81287 16.2178 1.97958 16.2382L3.03873 16.5218L0.658627 17.8809C0.384037 18.0376 0.183382 18.2963 0.100807 18.5999C0.0182307 18.9035 0.0604972 19.2273 0.218308 19.5C0.376119 19.7727 0.636546 19.972 0.9423 20.054C1.24805 20.136 1.57409 20.094 1.84868 19.9373L4.35969 18.4718L4.00267 19.7836C3.9555 19.9349 3.93942 20.0941 3.9554 20.2516C3.97137 20.4092 4.01908 20.562 4.09567 20.7009C4.17227 20.8398 4.27619 20.962 4.40128 21.0602C4.52636 21.1585 4.67005 21.2307 4.82381 21.2727C4.92661 21.2843 5.03042 21.2843 5.13322 21.2727C5.40189 21.2819 5.66576 21.2004 5.88186 21.0416C6.09795 20.8828 6.25354 20.656 6.32327 20.3982L7.29912 16.8527L10.3099 15.0445V18.7436L7.84654 21.19C7.62489 21.4114 7.50048 21.711 7.50048 22.0232C7.50048 22.3354 7.62489 22.6349 7.84654 22.8564C7.95676 22.968 8.08819 23.0569 8.23323 23.1177C8.37827 23.1786 8.53402 23.2103 8.69148 23.2109C8.84893 23.2103 9.00469 23.1786 9.14972 23.1177C9.29476 23.0569 9.4262 22.968 9.53641 22.8564L10.3099 22.0882V24.8182C10.3099 25.1316 10.4353 25.4322 10.6585 25.6539C10.8817 25.8755 11.1844 26 11.5 26C11.8156 26 12.1183 25.8755 12.3415 25.6539C12.5647 25.4322 12.6901 25.1316 12.6901 24.8182V21.8991L13.654 22.8564C13.7646 22.9671 13.8962 23.0551 14.0413 23.1151C14.1863 23.1751 14.3418 23.2059 14.4989 23.2059C14.656 23.2059 14.8116 23.1751 14.9566 23.1151C15.1016 23.0551 15.2332 22.9671 15.3439 22.8564C15.5655 22.6349 15.6899 22.3354 15.6899 22.0232C15.6899 21.711 15.5655 21.4114 15.3439 21.19L12.6901 18.5545V15.0091L15.7485 16.77L16.7243 20.3155C16.7941 20.5733 16.9496 20.8001 17.1657 20.9589C17.3818 21.1177 17.6457 21.1991 17.9144 21.19C18.0172 21.2016 18.121 21.2016 18.2238 21.19C18.3757 21.1502 18.5182 21.081 18.6431 20.9863C18.768 20.8915 18.8727 20.7732 18.9512 20.638C19.0298 20.5029 19.0806 20.3536 19.1008 20.1989C19.1209 20.0441 19.1101 19.8869 19.0687 19.7364L18.6403 18.4718L21.187 19.9373C21.323 20.0149 21.473 20.0651 21.6285 20.0851C21.784 20.1052 21.942 20.0946 22.0934 20.054C22.2448 20.0134 22.3867 19.9435 22.5109 19.8485C22.6351 19.7534 22.7393 19.635 22.8174 19.5C22.8955 19.365 22.9461 19.216 22.9663 19.0616C22.9864 18.9071 22.9758 18.7502 22.9349 18.5999C22.894 18.4495 22.8237 18.3087 22.728 18.1853C22.6323 18.0619 22.513 17.9585 22.3771 17.8809H22.4009Z" fill="var(--fill-0, #0061B6)"/>
</svg>
