<svg preserveAspectRatio="none" width="100%" height="100%" overflow="visible" style="display: block;" viewBox="0 0 24.9716 24.9834" fill="none" xmlns="http://www.w3.org/2000/svg">
<path id="Vector" d="M13.6125 20.0584C13.3009 19.9458 12.9573 19.9616 12.6573 20.1022C12.3573 20.2428 12.1254 20.4968 12.0125 20.8084L11.1 23.3084C10.9874 23.62 11.0032 23.9636 11.1438 24.2636C11.2845 24.5637 11.5385 24.7956 11.85 24.9084C11.9863 24.9578 12.1301 24.9832 12.275 24.9834C12.5319 24.9833 12.7825 24.904 12.9928 24.7564C13.203 24.6088 13.3627 24.4 13.45 24.1584L14.3625 21.6584C14.4751 21.3468 14.4593 21.0032 14.3187 20.7031C14.1781 20.4031 13.9241 20.1712 13.6125 20.0584ZM8.61253 20.0584C8.30089 19.9458 7.9573 19.9616 7.65728 20.1022C7.35726 20.2428 7.12535 20.4968 7.01253 20.8084L6.10003 23.3084C5.98745 23.62 6.00321 23.9636 6.14384 24.2636C6.28448 24.5637 6.53848 24.7956 6.85003 24.9084C6.98627 24.9578 7.13008 24.9832 7.27503 24.9834C7.53192 24.9833 7.78254 24.904 7.99278 24.7564C8.20303 24.6088 8.36268 24.4 8.45003 24.1584L9.36252 21.6584C9.4751 21.3468 9.45934 21.0032 9.31871 20.7031C9.17807 20.4031 8.92407 20.1712 8.61253 20.0584ZM8.61253 11.3084C8.30089 11.1958 7.9573 11.2116 7.65728 11.3522C7.35726 11.4928 7.12535 11.7468 7.01253 12.0584L5.63753 15.8084C5.56929 15.9971 5.5475 16.1995 5.574 16.3984C5.60049 16.5973 5.67449 16.787 5.78973 16.9512C5.90498 17.1155 6.05809 17.2497 6.23611 17.3423C6.41414 17.4349 6.61185 17.4833 6.81252 17.4834C7.06942 17.4833 7.32004 17.404 7.53028 17.2564C7.74053 17.1088 7.90018 16.9 7.98753 16.6584L9.36252 12.9084C9.4751 12.5968 9.45934 12.2532 9.31871 11.9531C9.17807 11.6531 8.92407 11.4212 8.61253 11.3084ZM13.6125 11.3084C13.3009 11.1958 12.9573 11.2116 12.6573 11.3522C12.3573 11.4928 12.1254 11.7468 12.0125 12.0584L10.6375 15.8084C10.5693 15.9971 10.5475 16.1995 10.574 16.3984C10.6005 16.5973 10.6745 16.787 10.7897 16.9512C10.905 17.1155 11.0581 17.2497 11.2361 17.3423C11.4141 17.4349 11.6118 17.4833 11.8125 17.4834C12.0694 17.4833 12.32 17.404 12.5303 17.2564C12.7405 17.1088 12.9002 16.9 12.9875 16.6584L14.3625 12.9084C14.4751 12.5968 14.4593 12.2532 14.3187 11.9531C14.1781 11.6531 13.9241 11.4212 13.6125 11.3084ZM20.525 5.25839C19.7613 3.50339 18.4431 2.04724 16.7726 1.11305C15.1021 0.17886 13.1713 -0.18182 11.2762 0.0862759C9.38112 0.354372 7.62618 1.23646 6.28034 2.59736C4.93451 3.95826 4.07201 5.72291 3.82502 7.62089C2.73429 7.8846 1.76398 8.50755 1.07019 9.38953C0.376393 10.2715 -0.000541395 11.3612 2.48442e-05 12.4834C-0.00220702 13.1914 0.145958 13.8918 0.434715 14.5383C0.723472 15.1848 1.14624 15.7626 1.67502 16.2334C1.79672 16.3503 1.94082 16.4413 2.09865 16.501C2.25647 16.5607 2.42475 16.5879 2.59334 16.5808C2.76193 16.5737 2.92735 16.5326 3.07961 16.4599C3.23188 16.3871 3.36785 16.2843 3.47932 16.1577C3.59079 16.031 3.67547 15.8831 3.72824 15.7228C3.781 15.5625 3.80077 15.3932 3.78636 15.2251C3.77194 15.057 3.72363 14.8935 3.64435 14.7445C3.56506 14.5956 3.45644 14.4642 3.32502 14.3584C3.0629 14.1218 2.85386 13.8324 2.71166 13.5093C2.56947 13.1861 2.49734 12.8365 2.50002 12.4834C2.50002 11.8203 2.76342 11.1845 3.23226 10.7156C3.7011 10.2468 4.33698 9.98339 5.00003 9.98339C5.33155 9.98339 5.64949 9.85169 5.88391 9.61727C6.11833 9.38285 6.25003 9.06491 6.25003 8.73339C6.25322 7.25499 6.78038 5.82558 7.73786 4.69912C8.69534 3.57266 10.0211 2.82208 11.4797 2.58073C12.9383 2.33938 14.4352 2.6229 15.7045 3.3809C16.9738 4.1389 17.9333 5.32231 18.4125 6.72089C18.484 6.93569 18.6124 7.12705 18.7841 7.27455C18.9559 7.42206 19.1644 7.52016 19.3875 7.55839C20.2552 7.70806 21.0426 8.1583 21.6117 8.83022C22.1807 9.50214 22.4952 10.3529 22.5 11.2334C22.5191 12.1537 22.1886 13.0471 21.575 13.7334C21.3755 13.9819 21.2784 14.2972 21.3036 14.615C21.3288 14.9327 21.4744 15.2288 21.7107 15.4427C21.947 15.6566 22.256 15.7722 22.5747 15.7658C22.8933 15.7594 23.1975 15.6316 23.425 15.4084C24.1135 14.6216 24.5937 13.6746 24.8214 12.6542C25.0492 11.6338 25.0174 10.5726 24.7289 9.56768C24.4403 8.56277 23.9043 7.6463 23.1699 6.90218C22.4354 6.15806 21.5261 5.61007 20.525 5.30839V5.25839ZM18.6125 20.0584C18.3009 19.9458 17.9573 19.9616 17.6573 20.1022C17.3573 20.2428 17.1254 20.4968 17.0125 20.8084L16.1 23.3084C15.9874 23.62 16.0032 23.9636 16.1438 24.2636C16.2845 24.5637 16.5385 24.7956 16.85 24.9084C16.9863 24.9578 17.1301 24.9832 17.275 24.9834C17.5319 24.9833 17.7825 24.904 17.9928 24.7564C18.203 24.6088 18.3627 24.4 18.45 24.1584L19.3625 21.6584C19.4751 21.3468 19.4593 21.0032 19.3187 20.7031C19.1781 20.4031 18.9241 20.1712 18.6125 20.0584ZM18.6125 11.3084C18.3009 11.1958 17.9573 11.2116 17.6573 11.3522C17.3573 11.4928 17.1254 11.7468 17.0125 12.0584L15.6375 15.8084C15.5693 15.9971 15.5475 16.1995 15.574 16.3984C15.6005 16.5973 15.6745 16.787 15.7897 16.9512C15.905 17.1155 16.0581 17.2497 16.2361 17.3423C16.4141 17.4349 16.6118 17.4833 16.8125 17.4834C17.0694 17.4833 17.32 17.404 17.5303 17.2564C17.7405 17.1088 17.9002 16.9 17.9875 16.6584L19.3625 12.9084C19.4751 12.5968 19.4593 12.2532 19.3187 11.9531C19.1781 11.6531 18.9241 11.4212 18.6125 11.3084Z" fill="var(--fill-0, #0061B6)"/>
</svg>
