<svg preserveAspectRatio="none" width="100%" height="100%" overflow="visible" style="display: block;" viewBox="0 0 27 19" fill="none" xmlns="http://www.w3.org/2000/svg">
<path id="Vector" d="M20.0434 6.05691C19.9223 5.86037 19.7533 5.69819 19.5525 5.58572C19.3516 5.47325 19.1255 5.41421 18.8957 5.41421C18.6658 5.41421 18.4397 5.47325 18.2389 5.58572C18.038 5.69819 17.869 5.86037 17.7479 6.05691L16.3977 8.27068L11.9553 0.66509C11.8357 0.462425 11.6658 0.294537 11.4622 0.177928C11.2586 0.0613181 11.0283 0 10.794 0C10.5598 0 10.3295 0.0613181 10.1259 0.177928C9.9223 0.294537 9.75237 0.462425 9.63281 0.66509L0.180916 16.9628C0.0627441 17.1686 0.000360651 17.4021 1.55907e-06 17.6398C-0.000357533 17.8775 0.0613201 18.1112 0.17887 18.3174C0.29642 18.5236 0.465724 18.6952 0.669861 18.815C0.873998 18.9348 1.10582 18.9986 1.34215 19H25.647C25.8883 19.0005 26.1253 18.9359 26.3333 18.8131C26.5414 18.6902 26.7129 18.5136 26.8301 18.3014C26.9472 18.0893 27.0058 17.8495 26.9996 17.6069C26.9933 17.3643 26.9226 17.1278 26.7948 16.922L20.0434 6.05691ZM11.4017 16.2837H3.69162L10.794 4.06044L14.7638 10.8511L13.076 13.5674L11.4017 16.2837ZM14.5748 16.2837L16.5867 13.0649L17.5454 11.6253L18.8957 9.34361L23.2165 16.2837H14.5748Z" fill="var(--fill-0, #0061B6)"/>
</svg>
