<svg preserveAspectRatio="none" width="100%" height="100%" overflow="visible" style="display: block;" viewBox="0 0 24.1734 24.3084" fill="none" xmlns="http://www.w3.org/2000/svg">
<g id="Vector">
<path d="M10.9422 3.67816C12.8884 3.67816 14.755 4.45359 16.1312 5.83386C17.5074 7.21413 18.2805 9.08618 18.2805 11.0382L18.2695 11.4154C18.1731 13.2997 17.3588 15.0749 15.9949 16.3744C14.631 17.6738 12.8215 18.3983 10.9403 18.3982L10.5623 18.3871C8.65587 18.2822 6.86523 17.4361 5.5706 16.0286C4.27597 14.6211 3.5793 12.7629 3.62849 10.8485C3.67768 8.93416 4.46887 7.11443 5.83408 5.77564C7.19928 4.43685 9.03099 3.68445 10.9403 3.67816M10.9403 5.15386C9.3843 5.15386 7.89201 5.77381 6.79173 6.87734C5.69145 7.98086 5.07332 9.47756 5.07332 11.0382C5.07332 12.5988 5.69145 14.0955 6.79173 15.199C7.89201 16.3025 9.3843 16.9225 10.9403 16.9225C12.4964 16.9225 13.9887 16.3025 15.0889 15.199C16.1892 14.0955 16.8073 12.5988 16.8073 11.0382C16.8073 9.47756 16.1892 7.98086 15.0889 6.87734C13.9887 5.77381 12.4964 5.15386 10.9403 5.15386Z" fill="var(--fill-0, #0061B6)"/>
<path d="M10.9422 0C13.8612 -4.10719e-08 16.6608 1.16289 18.725 3.23289C20.7893 5.3029 21.9492 8.1105 21.9497 11.0382L21.935 11.6059C21.8576 13.1753 21.4431 14.7094 20.7199 16.1033L23.2514 18.6386C23.8532 19.273 24.184 20.1182 24.1731 20.9939C24.1622 21.8695 23.8106 22.7061 23.1932 23.3253C22.5758 23.9445 21.7416 24.2972 20.8686 24.3081C19.9955 24.3191 19.1528 23.9873 18.5202 23.3838L15.9924 20.8484C14.4322 21.6618 12.6987 22.0838 10.9403 22.0782L10.3743 22.0634C7.52028 21.8985 4.84223 20.6264 2.90673 18.5164C0.971228 16.4063 -0.0698934 13.6239 0.00364683 10.7577C0.0771871 7.89147 1.25962 5.16639 3.30077 3.15899C5.34191 1.1516 8.08165 0.0193645 10.9403 0.00184912M20.01 17.2886C19.2452 18.4035 18.2835 19.3687 17.1724 20.1365L19.4661 22.437C19.846 22.7974 20.3512 22.995 20.8742 22.9877C21.3971 22.9803 21.8966 22.7686 22.2663 22.3976C22.636 22.0265 22.8467 21.5255 22.8537 21.001C22.8607 20.4765 22.6634 19.9699 22.3037 19.5891L20.01 17.2886ZM10.9422 1.4757C8.413 1.47595 5.98753 2.48385 4.19932 4.27768C2.41111 6.07151 1.40664 8.50433 1.40689 11.0409C1.40713 13.5776 2.41207 16.0102 4.20062 17.8037C5.98918 19.5972 8.41485 20.6046 10.944 20.6043C12.1963 20.6042 13.4363 20.3567 14.5933 19.876C15.7502 19.3952 16.8014 18.6906 17.6868 17.8024C18.5723 16.9142 19.2746 15.8597 19.7537 14.6993C20.2329 13.5388 20.4794 12.2951 20.4793 11.0391C20.4792 9.7831 20.2324 8.53941 19.753 7.37906C19.2737 6.21871 18.5711 5.16442 17.6855 4.27637C16.7999 3.38833 15.7486 2.68393 14.5916 2.20339C13.4345 1.72285 12.1945 1.47558 10.9422 1.4757Z" fill="var(--fill-0, #0061B6)"/>
</g>
</svg>
